<?xml version="1.0" encoding="UTF-8"?>
<svg version="1.1" xmlns="http://www.w3.org/2000/svg" width="512" height="512">
<path d="M0 0 C17.73818234 15.73406659 33.36808711 33.49808312 44.98632812 54.26367188 C45.44007813 55.0715918 45.89382813 55.87951172 46.36132812 56.71191406 C74.57360686 107.49768927 81.23569777 165.33703571 65.81884766 221.36523438 C58.27185882 247.64026414 46.05018744 271.87290537 28.98632812 293.26367188 C27.84164062 294.71386719 27.84164062 294.71386719 26.67382812 296.19335938 C22.82609762 300.99002342 18.89107667 305.52068355 14.46289062 309.78710938 C12.82677012 311.3613352 12.82677012 311.3613352 11.04882812 313.76367188 C8.06530644 317.3800618 4.56566992 320.24979613 0.98632812 323.26367188 C0.05046875 324.06417969 -0.88539063 324.8646875 -1.84960938 325.68945312 C-8.01131701 330.90868877 -14.23826845 335.85557808 -21.01367188 340.26367188 C-21.62388184 340.66166992 -22.2340918 341.05966797 -22.86279297 341.46972656 C-61.96735138 366.75228074 -104.25984086 376.38366159 -150.41210938 376.46679688 C-152.00615538 376.47103794 -152.00615538 376.47103794 -153.63240433 376.47536469 C-159.24142956 376.49026614 -164.85042962 376.49955627 -170.45947266 376.50390625 C-176.24301339 376.50941944 -182.02632209 376.5335328 -187.80978966 376.5618782 C-192.27247809 376.58049413 -196.73511003 376.58570933 -201.19783401 376.58724213 C-203.33086052 376.5902647 -205.46388611 376.59827988 -207.59687424 376.61142731 C-210.57371702 376.62848746 -213.5499836 376.62660909 -216.52685547 376.62011719 C-217.40280365 376.62933197 -218.27875183 376.63854675 -219.1812439 376.64804077 C-224.20950922 376.61370182 -227.65256383 376.04615529 -232.01367188 373.26367188 C-235.2523484 369.59317181 -235.48285854 366.12618751 -235.29492188 361.41210938 C-234.89113631 358.32763632 -234.07294528 356.59751507 -232.01367188 354.26367188 C-226.20788118 350.26235888 -219.9731212 350.76267004 -213.18945312 350.67382812 C-210.60676826 350.61078227 -208.02408606 350.54762761 -205.44140625 350.484375 C-202.06729068 350.41375829 -198.69304907 350.3504008 -195.31872559 350.29058838 C-175.68226482 349.94133277 -156.89853642 349.30183075 -138.38867188 342.07617188 C-137.22911987 341.63398315 -137.22911987 341.63398315 -136.04614258 341.18286133 C-99.50080515 326.80381845 -73.14523272 299.62173975 -57.05664062 264.09570312 C-53.97265947 256.9987286 -51.7724602 249.79001833 -50.01367188 242.26367188 C-49.85141113 241.59674316 -49.68915039 240.92981445 -49.52197266 240.24267578 C-41.00377196 203.84033409 -49.17933395 165.9711021 -68.01367188 134.26367188 C-70.49534389 130.4343706 -73.1712529 126.83192284 -76.01367188 123.26367188 C-76.42488281 122.74562988 -76.83609375 122.22758789 -77.25976562 121.69384766 C-96.12983424 98.11326117 -121.69688723 80.95526648 -151.01367188 73.26367188 C-151.78517578 73.05629395 -152.55667969 72.84891602 -153.3515625 72.63525391 C-188.84185876 63.4878976 -227.60190469 69.54003083 -259.04833984 88.05908203 C-268.4860139 93.84361418 -277.02651393 100.59805813 -285.01367188 108.26367188 C-285.90699219 109.09382812 -286.8003125 109.92398438 -287.72070312 110.77929688 C-308.54467533 130.70041154 -321.24848456 157.55665806 -326.29199219 185.71313477 C-327.41466032 191.70862656 -328.66252836 195.83698174 -333.82617188 199.57617188 C-337.65783391 200.78040851 -341.15808214 200.98944689 -344.95117188 199.50585938 C-348.58582498 197.58252211 -350.59349213 196.08478329 -352.01367188 192.26367188 C-361.37447332 140.72148118 -346.53620247 83.94811221 -317.01367188 41.26367188 C-298.78430077 15.43822828 -275.72049075 -7.23450426 -248.01367188 -22.73632812 C-247.20575195 -23.19007812 -246.39783203 -23.64382812 -245.56542969 -24.11132812 C-167.00109761 -67.75502219 -68.37581097 -58.95838599 0 0 Z " fill="#000000" transform="translate(396.013671875,93.736328125)"/>
<path d="M0 0 C2.39337584 2.20160377 4.72021266 4.46528835 7.04785156 6.73632812 C7.68980469 7.31640625 8.33175781 7.89648438 8.99316406 8.49414062 C30.24742595 28.16669 41.96915546 60.08417575 43.20800781 88.39648438 C43.971445 115.77301702 35.97050464 141.72236474 18.04785156 162.73632812 C17.05785156 163.39632812 16.06785156 164.05632812 15.04785156 164.73632812 C15.27504883 163.74342773 15.27504883 163.74342773 15.50683594 162.73046875 C22.04585695 133.49601483 23.18132168 106.37522966 7.89550781 79.55664062 C-6.93658011 56.91654024 -30.35581202 43.69327235 -56.26074219 37.49804688 C-85.46722877 31.47131155 -116.12376628 36.45901346 -141.24804688 52.57958984 C-160.43330875 65.60247964 -171.24095435 83.37375541 -179.07714844 104.81445312 C-179.40714844 105.69617188 -179.73714844 106.57789063 -180.07714844 107.48632812 C-180.34785156 108.24429688 -180.61855469 109.00226563 -180.89746094 109.78320312 C-182.21785483 112.228377 -183.57945061 113.31359312 -185.95214844 114.73632812 C-189.57755808 115.13182736 -192.22879906 114.96648475 -195.70214844 113.86132812 C-201.42525991 108.45616729 -201.87405687 98.19538717 -202.15527344 90.71289062 C-202.7478811 58.02945296 -189.67932631 30.33845874 -167.18261719 6.90820312 C-158.01261489 -2.30387627 -147.4463516 -9.30663051 -135.95214844 -15.26367188 C-134.90542969 -15.80765625 -133.85871094 -16.35164062 -132.78027344 -16.91210938 C-90.61327108 -37.57603839 -35.24305224 -31.43706063 0 0 Z " fill="#000000" transform="translate(286.9521484375,213.263671875)"/>
<path d="M0 0 C1.13147461 -0.00145523 2.26294922 -0.00291046 3.42871094 -0.00440979 C5.81578146 -0.00275325 8.20286293 0.00878046 10.58984375 0.02954102 C14.2374421 0.05849407 17.88358612 0.05014377 21.53125 0.03710938 C23.85417371 0.04334723 26.17709284 0.05173853 28.5 0.0625 C29.58764648 0.05956436 30.67529297 0.05662872 31.79589844 0.05360413 C37.33850111 0.12244394 41.50154183 0.29623623 46.25 3.49609375 C49.48867653 7.16659382 49.71918667 10.63357811 49.53125 15.34765625 C49.12746444 18.4321293 48.30927341 20.16225055 46.25 22.49609375 C40.61411646 26.29396322 35.04811582 25.94736135 28.5 25.9296875 C27.36852539 25.93492935 26.23705078 25.9401712 25.07128906 25.9455719 C22.68425312 25.95198191 20.29718556 25.95066837 17.91015625 25.94213867 C14.2624483 25.93362281 10.61630364 25.96241635 6.96875 25.99414062 C4.6458338 25.99575265 2.32291484 25.99517509 0 25.9921875 C-1.08764648 26.00342148 -2.17529297 26.01465546 -3.29589844 26.02622986 C-9.42828117 25.96989984 -13.09755057 25.62275919 -17.75 21.49609375 C-20.15897521 18.52502433 -20.71512871 16.82155915 -21.125 12.99609375 C-20.58629379 7.96816913 -19.11650793 5.70816949 -15.3671875 2.38256836 C-10.68908901 -0.62738257 -5.37618908 -0.05552906 0 0 Z " fill="#000000" transform="translate(74.75,444.50390625)"/>
</svg>
